/* XPM */
static const char *prog_icon[] = {
/* width height ncolors chars_per_pixel */
"55 55 326 2",
/* colors */
"   c #834081",
" . c #8E588F",
" X c #D2CDD8",
" o c #923F72",
" O c #F1BAC5",
" + c #563E90",
" @ c #9DA7B1",
" # c #E5533C",
" $ c #CA0A39",
" % c #CCD9E9",
" & c #DB675D",
" * c #BA95A6",
" = c #FFFDFA",
" - c #AA4D65",
" ; c #CCE8F6",
" : c #565989",
" > c #D23551",
" , c #C75467",
" < c #524799",
" 1 c #8B3E78",
" 2 c #BE7B6B",
" 3 c #FCECED",
" 4 c #B85362",
" 5 c #25A7D9",
" 6 c #D0577D",
" 7 c #7169AA",
" 8 c #A14548",
" 9 c #D7D8D9",
" 0 c #DC506B",
" q c #6899A4",
" w c #952964",
" e c #D36C4E",
" r c #E0433A",
" t c #CCC0B7",
" y c #868CBB",
" u c #CED0D0",
" i c #0BB3EA",
" p c #16B3E1",
" a c #E1F4FD",
" s c #A73365",
" d c #A74B7C",
" f c #C7123C",
" g c #B15B5E",
" h c #9D3265",
" j c #E54F42",
" k c #2F7EC5",
" l c #F5CAD2",
" z c #E57370",
" x c #D6335B",
" c c #FBDCB0",
" v c #983C77",
" b c #494CA0",
" n c #6F6597",
" m c #B56790",
" M c #D52E50",
" N c #4184C6",
" B c #F3F3F4",
" V c #B4114A",
" C c #EEEFEF",
" Z c #E3695A",
" A c #D3224E",
" S c #E4D2AD",
" D c #F9D29A",
" F c #C2043A",
" G c #E36050",
" H c #F7F7FB",
" J c #756496",
" K c #5F60A8",
" L c #F3F5F7",
" P c #AF1A52",
" I c #732570",
" U c #F6B3A1",
" Y c #703B84",
" T c #F9D8C8",
" R c #AF0D48",
" E c #B9A893",
" W c #725389",
" Q c #D21F46",
" ! c #C82246",
" ~ c #6F6B9D",
" ^ c #7C4689",
" / c #633081",
" ( c #4053A7",
" ) c #CC0033",
" _ c #F18D71",
" ` c #8D2165",
" ' c #80236C",
" ] c #F4A94C",
" [ c #DA4368",
" { c #D94367",
" } c #DC4B56",
" | c #E77E71",
".  c #B17274",
".. c #17A6E1",
".X c #50398F",
".o c #EB99AD",
".O c #CA5744",
".+ c #E78392",
".@ c #D6325A",
".# c #4C358B",
".$ c #A7235A",
".% c #C2B4A2",
".& c #73326C",
".* c #04B9EF",
".= c #9B98A0",
".- c #FBD8A5",
".; c #DD6667",
".: c #3D429D",
".> c #A6124F",
"., c #5656A5",
".< c #37A8C8",
".1 c #C3053A",
".2 c #F3A990",
".3 c #E3D8CC",
".4 c #9D6A77",
".5 c #CFB394",
".6 c #E47792",
".7 c #D98787",
".8 c #EDA7B5",
".9 c #815B8D",
".0 c #CD99A6",
".q c #F6C557",
".w c #D94263",
".e c #EBC095",
".r c #B5BAC3",
".t c #E3849E",
".y c #A10E4D",
".u c #7EB8DC",
".i c #BE6F94",
".p c #EE9E6D",
".a c #892B6A",
".s c #F9CC92",
".d c #FFFAF1",
".f c #C91946",
".g c #97617E",
".h c #CE2C58",
".j c #F9E66A",
".k c #8B3A79",
".l c #F8C987",
".z c #CD1040",
".x c #D5DAEC",
".c c #DD5577",
".v c #CF0D38",
".b c #AC0A47",
".n c #E8847E",
".m c #FDE29C",
".M c #D73546",
".N c #FCEEF1",
".B c #D4B681",
".V c #FBE6C5",
".C c #6B70B2",
".Z c #DBCFC0",
".A c #A81350",
".S c #C7406B",
".D c #F3C0BA",
".F c #C14665",
".G c #B1275C",
".H c #683481",
".J c #C5063B",
".K c #C7606E",
".L c #D6335C",
".P c #9BDDFB",
".I c #FCEBD3",
".U c #1E97D6",
".Y c #D74C6A",
".T c #AF5B74",
".R c #B0AEB0",
".E c #EDE5D8",
".W c #CE2B54",
".Q c #F8C5B8",
".! c #F17D41",
".~ c #D5C49C",
".^ c #C72D4D",
"./ c #B20F49",
".( c #F5CCD6",
".) c #1DBDEF",
"._ c #5472B2",
".` c #92437F",
".' c #A5265D",
".] c #E06583",
".[ c #776899",
".{ c #F8D7BB",
".} c #C63259",
".| c #CF1141",
"X  c #DD485F",
"X. c #9F1857",
"XX c #ED6F54",
"Xo c #F1AB72",
"XO c #55257B",
"X+ c #BD0D43",
"X@ c #8D2E70",
"X# c #FAE6E1",
"X$ c #7D2E74",
"X% c #C51D4E",
"X& c #E2C7A5",
"X* c #EEAABB",
"X= c #D21A3D",
"X- c #C76981",
"X; c #68C9F3",
"X: c #C66C76",
"X> c #A91450",
"X, c #D29271",
"X< c #A891B8",
"X1 c #EF6D31",
"X2 c #F6A77D",
"X3 c #B1D0E8",
"X4 c #8B7998",
"X5 c #2CC3F3",
"X6 c #3D3B7D",
"X7 c #BC9286",
"X8 c #E788A0",
"X9 c #923371",
"X0 c #B31049",
"Xq c #90D0EF",
"Xw c #464B89",
"Xe c #BC0C3E",
"Xr c #56579C",
"Xt c #AB657C",
"Xy c #EB7C65",
"Xu c #E65032",
"Xi c #A2A7CC",
"Xp c #E88783",
"Xa c #E5E6E6",
"Xs c #83266C",
"Xd c #43C0EF",
"Xf c #FDF6ED",
"Xg c #FD6824",
"Xh c #EC9069",
"Xj c #2A3395",
"Xk c #44479E",
"Xl c #F5BB96",
"Xz c #6E4778",
"Xx c #F09884",
"Xc c #C90A3A",
"Xv c #D93D5A",
"Xb c #C80A39",
"Xn c #5E509D",
"Xm c #BF3B68",
"XM c #E06685",
"XN c #C44359",
"XB c #4F50A2",
"XV c #3A90CF",
"XC c #CF968B",
"XZ c #9D2261",
"XA c #D63157",
"XS c #EEA18F",
"XD c #E18E75",
"XF c #C62D5B",
"XG c #D31633",
"XH c #A79C8B",
"XJ c #602274",
"XK c #DAA3BA",
"XL c #DB4655",
"XP c #AFE1F9",
"XI c white",
"XU c #992D6A",
"XY c #BCC1DB",
"XT c #FDF0DC",
"XR c #D3204A",
"XE c #FBE1B9",
"XW c #892B6E",
"XQ c #E896AA",
"X! c #FDD686",
"X~ c #FBE6DA",
"X^ c #7A2B73",
"X/ c #C83360",
"X( c #EB8282",
"X) c #EED2B6",
"X_ c #E23C34",
"X` c #A38873",
"X' c #745691",
"X] c #9E8E99",
"X[ c #578FC0",
"X{ c #383D98",
"X} c #584E9D",
"X| c #CF9B87",
"o  c #C2C4C6",
"o. c #D49EAD",
"oX c #F8DDE4",
"oo c #B03869",
"oO c #4468B4",
"o+ c #2F90CA",
"o@ c #F7DAD9",
"o# c #ED6631",
"o$ c #9387AF",
"o% c #6E5398",
"o& c #BD7C93",
"o* c #FAE05E",
"o= c #EF7540",
"o- c #E1839C",
"o; c #309CCE",
"o: c #CD8B9C",
"o> c #BB264C",
"o, c #423991",
"o< c #B71D52",
"o1 c #8F2366",
"o2 c #FEF6E6",
"o3 c #F1BBC9",
"o4 c #BB4370",
"o5 c #F7C57C",
"o6 c #FAC3AA",
"o7 c #DB948F",
"o8 c #BA0941",
"o9 c #EDA0A4",
"o0 c #E8C181",
"oq c #D7829F",
"ow c #DBB3C7",
"oe c #FAFAF9",
"or c #E0BBB8",
"ot c #CC9BB5",
"oy c #4F509A",
"ou c #01BCF5",
"oi c #6592CD",
"op c #EEA7B2",
"oa c #5A4291",
"os c #F48E58",
"od c #FAEAE5",
"of c #B65985",
"og c #E0CAB1",
"oh c #952868",
"oj c #664B96",
"ok c #FFF3CC",
"ol c #FEFBF6",
"oz c #C81C4B",
"ox c #8C9090",
"oc c None",
/* pixels */
"XIXIXIXIXIXIXIXIXIXIXIXIXIXIXIXI = =.do2XT.V.V c c c.-.-.-.-.- c.VXTXf =XIXIXIXIXIXIXIXIXIXIXIXIXIXIXIXIXIXIXI",
"XIXIXIXIXIXIXIXIXIXIXIXIXIXI =olXfo2.I.VXEXE c c c c.-.-.-.- D.- D D cXTolXIXIXIXIXIXIXfodoeXIXIXIXIXIXIXIXIXI",
"XIXIXIXIXIXIXIXIXIXIXIXIXI =XfXTXT.V.V.VXEXEXEXE c c c c.-.-.- D D D D DXEXfXIXIXIXIXIXf.2.QXIXIXIXIXIXIXIXIXI",
"XIXIXIXIXIXIXIXIXIXIXIXI.dXTXT.I.I.V.V.VXEXEXEXE cXE c c c.-.-.- D D D D D.-.IXIXIXIXfod U _XIXIXIXIXIXIXIXIXI",
"XIXIXIXIXIXIXIXIXIXIXIXfXTXT.I.I.V.V.V.V.V.V.VXEog E.R E E.%X&.-.m.- D D D.s D.VXIol T T.QXx UXIXIXIXIXIXIXIXI",
"XIXIXIXIXIXIXIXIXI =odXT.I.I.I.I.I.V.Vok.V t.= ~ KXrXBXB bXr ~ ~.=.e.-.m.s D.s D.V To6o6.Q.2 GodXIXIXIXIXI = T",
"XIXIXIXIXIXIXIXI L.E.I.I.I.I.I.I.I.Iok.Z.= KX{XjXjXjXjXjXjXjXjXjXk Kox.e.- D D.s.e U U U U UXy _XIXIXf.QXx.2.Q",
"XIXIXIXIXIXIXI C u.V.I.IXTXT.I.I.I.I t ~XjXjX{X{X{X{X{.:.:X{X{X{X{XjXj ~.5 D D.e.2X2.2.2.2.2Xx j U UXxXX _.Q H",
"XIXIXIXIXIXI Bo .3.V.IXTXTXTXT.I.I.r bXjX{X{.:.:Xk b ( ( ( ( (Xk.:.:X{XjXr E.eX2XxXxXxXxXxXxXx GX_ jXy Uod =XI",
"XIXIXIXIXI L u t.V.V.IXTXTXTXT.I tXkXjX{.:XkXk (oO k k...U.U koO ( bXk.:XjoyXC _ _ _ _Xx _ _XD 2 jXxo6 T HXIXI",
"XIXIXIXIoe 9.RXE.V.Vo2o2XTXTXT.ZXkX{.:XkXk boO.U.*.*.*.*.*.*.*.*.. k ( b.:X} 2 _ _ _ _ _XyXyXCod G _ T =XIXIXI",
"XIXIXIXIXa.r.%.V.V.Io2o2XTo2.3.CX{.:Xk bXB k i i.*.*.*.*.*.*.*.* i i.UoO.: WXyXyXyXy _XX e.5 Tod j.QXfXIXIXIXI",
"XIXIXI Co .RXEXE.Vo2Xfo2o2XT.RXj.:Xk bXB k iou.*.*.*.*.*ouou.*.*.*ou i.UoO WXyXyXyXy G eXx.Q T TXyodXIXIXIXIXI",
"XIXIoeXa.R.%.VXE.IXfXfo2.d X KX{Xk bX} k iou.*.*.*ououou p p.*ouou.*.).).<X4XXXXXX.O eXD U.Q.Q TXxodXIXIXIXIXI",
"XIXIXao .RX&XEXEXT.d.do2o2XiXjXk bX}oO..ou.*.*.*ou 5 qoxX`X`ox q.<.)X5X5Xd.gXX G.O eXD.2.2 U Uo6XxodXIXIXIXIXI",
"XI = 9.R E c cXE.d.d.d.d 9.CX{ bXB., 5ou.*.*.*.*.<X`X1XgXgXgXgXg 2 qXdXd k W j.O.OXyXxXxXx.2.2 U UodXIXIXIXIXI",
"XI C 9.=.%XE c.V =ol.d =.r bXkXB.,oO..ou.*.*.*.< eXgX1X1X1X1X1X1XgX1 @XV (X6 8.OXy _ _ _ _Xx.2 U TolXIXIXIXIXI",
" =Xao .=.~XE c.I =ol.dol yXj b., K.U i.*.*ou.< eX1X1X1X1X1X1X1X1.!.! 2 WX{X6X4XDXyXyXy _ _Xx.e.IXIXIXIXIXIXIXI",
"oe u.R EX& cXEXT =ol = C yX{XB., K...*.*ou poxXgX1X1X1X1X1X1X1.!.!.! WXjX6 y.x y.g.g.g 2X2.l.sXEolXIXIXIXIXIXI",
" C 9 @ EX&.-XEXfXI = = X.CX{., KoO i.*.*ou.< eX1X1X1X1X1.! ].q ]os.gX6Xw @XY y.u.C KXkX4.e D.s.-olXIXIXIXIXIXI",
"Xa 9.= E.-.-XE.dXI = =XY KXk., K N i.*.*.* qXgX1X1X1X1 ].qo*o*o*X`X6XrXiXiXi.uXqoi KXk ~.5 D.s DolXIXIXIXIXIXI",
" 9o ox E.-.-XE.dXI =XIXi., b., KXV i.*ou poxXgX1X1X1.!.q.jo*o*.BX6 K y.RXC.R.P.P.u.C b K E D D.so2XIXIXIXIXIXI",
" 9o ox.%.- DXE.dXIXIXIXiXB b K KXV i.*ou.<X`XgX1X1X1 ]o*o*o*.B : K @.%XCX2og.PXPXq.C bXB.=.m.s.sXT =XIXIXIXIXI",
" u.rox.5.m D c.dXIXIXIXi.,XB K KXV i.*ou.< 2XgX1X1X1 ]o*o*o*oxXro  t.e U.logXPXPX3.CXB bX4.m D.sXT =XIXIXIXIXI",
" u.Rox.5.- D c.dXIXIXIXi.,XB.,.CXV i.*ou.<X`XgX1X1X1.q.jo*.~ox @ Sok co6o6X) ;XPX3.C.,.:X4.m D D.I =XIXIXIXIXI",
" u.Rox.5.m D c.dXIXIXIXi.,XB K KXV i.*ou.<X`XgX1X1X1 ]o*.j.j.~ E So2XEo6 c T ; ;X3.C.,.:X4.m D D.VolXIXIXIXIXI",
" u.Rox.5.-.s c.dXIXIXIXiXB b K KXV i.*ou 5X`XgX1X1X1 ]o*.j.j.m S.%.E T T T.E ; ;.x.CXB.:X4.m D D.VolXIXIXIXIXI",
" u.Rox E D.s cXfXIXIXIXY.C b., K N i.*.*.* qXgX1X1X1.!.q.j.m.m.m.% tX) T.V C ; a.x.CXB.:X4.m D D.IolXIXIXIXIXI",
" u.Rox E.s.s.-XTXIXI.N 6 v + K K.C iou.*ou qX1X1X1.!.!os.q.j.m.m.~ E.5 TXT C a aXY.C bXB.=.m D DXT =XIXIXIXIXI",
" u.rox E.e D D.IXIXI.L ) ) )XZo% K...*.*ou 5 2XgX1Xu.!osX2o5o5 D.e E E.7o@owXKoqX< K b.,.=.-.- DXT =XIXIXIXIXI",
" uo .=XH.eX! DXEXIX8 ) ) ) ) ).J   N iou.*.* qo#XG ) r.!os _X2.2 U.5XN ).0XK ) ) )X+ ` ^ E.m D Do2XIXIXIXIXIXI",
" uo ox.=.B D.s.-XI.N.| ).S.1 ) ) ).`...*.*ou p g ) ) #osos _X2X2.eX( ) ) *ot.z ) ) ) ) ) >Xl.-.-olXIXIXIXIXIXI",
" u 9.=ox.5X!.l D.dXI.o ).h 7 R ) ) )X' iou.*.* n ) )o=.!ososX2X2X2X  ) ) @XY %of P ) ) ) ) ) z colXIXIXIXIXIXI",
" 9 u.=oxXH.s.l.s.I =.N ) )ofo,X0 ) ).Jo+ou.*.* n ) f.!.!ososX2X2X2.; ).f @.r.r.Coh ).> ) ) ) ) M 3XIXIXIXIXIXI",
"Xa u.RoxXHo0.l.s.- =o3 ) )X/XB < V ) ).$ iou.* o ) s.uXHXDXDXD.2 t.i )oz.u @ y w ) ) JX| } ) ) ) x.NXIXIXIXIXI",
"Xa 9.r.=ox.5X!.l.s.dX8 ) ).tXiXjoa ) ) )._ iou h ).9XdX;.uXqXqXqXqXm )XF.r q :Xe ).b.= c c.n ) ) )X8XIXIXIXIXI",
" L u u.=oxXHX!.l.l.V.] ) ).(.x K.:o1 ) ).k N i ) ).[XdXdX;X;X;XqXqX% ) mXi : : ) )XU tXE c cXp ) ).|XIXIXIXIXI",
" = 9 9 @oxXHo0.l.l.sXA ) AXIoeXYXk.H ) )X@ K N ) )X[XdXdX;X;X;Xq.P ) ) . KXwXz ) )XtX)XE c cXT.c ) )o3XIXIXIXI",
"XIXa 9.r.=ox E.lo5o5Xv )XMXIXI H y.: ) )XWX}Xn ) )o;XdXdXdX;X;X;o$ ) )ojXk b.& ) )X7 S c c.V =.( ) )o3XIXIXIXI",
"XI B 9 u @oxoxo0o5o5 ) )X8XIXIXI B.C ) )X^ b Y ) )X9 1.'.G )o<o< ) )o8XkXk.: I ) $ E.% SXEXTXIXI ) )oXXIXIXIXI",
"XIXI 9 9.roxoxXHo5.p ) )opXIXIXIXIXQ ) ).XXk ` ) ) ) ) )./X>.1Xso8 ).A.:X{X{.a ).^.% E.5.V =XIXI ).|XIXIXIXIXI",
"XIXI C 9o .Roxox.BXh ) ).{XIXIXI.(.| )ooX{.# ) ) ) )X.X$ bXkXkXk.1 ) 'X{X{ K , ).K E E.%.EXIXIX* ).6XIXIXIXIXI",
"XIXIXI 9 u.roxoxXH & )X=.s.IXIX8 ) )X8 B.roj ) ) F /.:.:.:.:.:.X ) )XJXj.C.ZXv )X:.%.%.Z =XIXI.L )oXXIXIXIXIXI",
"XIXIXI C 9 u.Roxox 4 ).Mo5 |XR ) AX*XIXI H.xo4 ).yXjXjXjXjXjXjXO ) ) 7.R.3.IXv )o7.%.Z BXIXIX8 ).6XIXIXIXIXIXI",
"XIXIXI =Xa uo .=ox - ).v.v )XLo9XIXIXIXIXIXI.t )X/ y.C K.C K.C d ).}.Z.Iok.I ) ).{.Z CXIXI.N.| A.NXIXIXIXIXIXI",
"XIXIXIXI H 9 uo .TXb ) ! ZXoo5 DXTXIXIXIXIXIX8 ) [Xf 9 X X X u.Y ).+o2XT.I.I ) QXTXf =XI.N.L ).(XIXI.NXIXIXIXI",
"XIXIXIXIXI L 9 uo&Xc ).4 Eo5o5o5 D.IolXIXIXIX8 ) { l lol.d.d.dXA ).DXT.I.I.I ) 0olXIXI.N.L ).o.(.oXM.LXIXIXIXI",
"XIXIXIXIXIXI B 9 u.F ).4oxXHo0o5o5o5XEo2 =XIX* ) ).@.d.dXfo2o2 ) )XTXTXT.Ior ).oXIXI.N.L ).| A ) ) AX*XIXIXIXI",
"XIXIXIXIXIXIXI C u.W )X]oxoxXH.Bo5o5o5.s.Vol O ) ) lol.dXfXfX~ ).wXTXT.I.3o..LXIoXX8.| ) ).c.oo3oXXIXIXIXIXIXI",
"XIXIXIXIXIXIXIXI B ) )X-.=oxoxox Eo0o5o5o5.sXE 0.8 = =ol.d.dX# ).+okX).%Xa =.N.6 ) ) ).|X8XIXIXIXIXIXIXIXIXIXI",
"XIXIXIXIXIXIXIXIXI ) )o:o .RoxoxoxoxXH.Bo5X!.l.s.s.- c c c cXS )X,XH.rXa =XIo3 ) ).|X8.NXIXIXIXIXIXIXIXIXIXIXI",
"XIXIXIXIXIXIXIXIXIX8o-Xa 9o .r @oxoxoxoxXHXH E.B.B.B.B.B.B E. o>.R 9 BXIXIXIXIo3.(XIXIXIXIXIXIXIXIXIXIXIXIXIXI",
"XIXIXIXIXIXIXIXIXIXIXIoe CXa 9o .R.R.=oxoxoxoxoxoxXHoxoxox.=.R uXaXIXIXIXIXIXIXIXIXIXIXIXIXIXIXIXIXIXIXIXIXIXI",
"XIXIXIXIXIXIXIXIXIXIXIXIXIoe CXaXa 9o .R @.=.=.=.=.= @.Ro  u CXIXIXIXIXIXIXIXIXIXIXIXIXIXIXIXIXIXIXIXIXIXIXIXI",
"XIXIXIXIXIXIXIXIXIXIXIXIXIXIXI H CXa 9 u u uo o o o  uXa BXIXIXIXIXIXIXIXIXIXIXIXIXIXIXIXIXIXIXIXIXIXIXIXIXIXI"
};
