/* XPM */
static const char *AzArrow[] = {
/* columns rows colors chars-per-pixel */
"74 87 27 1",
"  c #385D8A",
". c #385E8C",
"X c #3A608F",
"o c #3E628E",
"O c #3B6191",
"+ c #3B6292",
"@ c #3E6798",
"# c #4B6C95",
"$ c #416C9F",
"% c #517199",
"& c #436FA3",
"* c #4470A5",
"= c #4673AA",
"- c #4977AF",
"; c #4F80BB",
": c #4F81BD",
"> c #6A86A8",
", c #708BAB",
"< c #7790AF",
"1 c #7D95B3",
"2 c #90A4BE",
"3 c #9BAEC4",
"4 c #A1B3C8",
"5 c #A8B8CB",
"6 c #AEBDCF",
"7 c #BAC7D6",
"8 c none",
/* pixels */
"88888888888888888888888888888888888888888888888888888888888888888888888888",
"88888888888888888888888888888888888888888888888888888888888888888888888888",
"88888888888888888888888888888888888888888888888888888888888888888888888888",
"88888888888888888888888888888888888888888888888888888888888888888888888888",
"88888888888888888888888888888888888888888888888888888888888888888888888888",
"88888888888888888888888888888888888888888888888888888888888888888888888888",
"88888888888888888888888888888888888888888888888888888888888888888888888888",
"88888888888888888888888888888888888888888888888888888888888888888888888888",
"88888888888888888888888888888888888888888888888888888888888888888888888888",
"88888888888888888888888888888888888888888888888888888888888888888888888888",
"88888888888888888888888888888888888888888888888888888888888888888888888888",
"88888888888888888888888888888888888888888888888888888888888888888888888888",
"88888888888888888888888888888888888888888888888888888888888888888888888888",
"88888888888888888888888888888888888888888888888888888888888888888888888888",
"88888888888888888888888888888888888888888888888888888888888888888888888888",
"88888888888888888888888888888888888888888888888888888888888888888888888888",
"88888888888888888888888888888888888888888888888888888888888888888888888888",
"88888888888888888888888888888888888888888888888888888888888888888888888888",
"88888888888888888888888888888888888888888888888888888888888888888888888888",
"88888888888888888888888888888888888888888888888888888888888888888888888888",
"88888888888888888888888888888888888888888888888888888888888888888888888888",
"88888888888888888888888888888888888888888888888888888888888888888888888888",
"88888888888888888888888888888888888888888888888888888888888888888888888888",
"88888888888888888888888888888888888888888888888888888888888888888888888888",
"88888888888888888888888888888888888888888888888888888888888888888888888888",
"88888888888888888888888888888888888888888888888888888888888888888888888888",
"88888888888888888888888888888888888888888888888888888888888888888888888888",
"88888888888888888888888888888888888888888888888888888888888888888888888888",
"88888888888888888888888888888888888888888888888888888888888888888888888888",
"88888888888888888888888888888888888888888888888888888888888888888888888888",
"88888888888888888886>4888888888888888888888888888887>588888888888888888888",
"8888888888888888883  o88888888888888888888888888888#  38888888888888888888",
"888888888888888883    88888888888888888888888888888    3888888888888888888",
"88888888888888883     88888888888888888888888888888     388888888888888888",
"8888888888888883      88888888888888888888888888888      38888888888888888",
"888888888888883   @   88888888888888888888888888888   @   3888888888888888",
"88888888888883   @;                                   ;@   388888888888888",
"8888888888883   @;:.                                  :;@   38888888888888",
"888888888883   @;::*                                 $::;@   3888888888888",
"88888888883   @;:::::::::::::::::::::::::::::::::::::::::;@   388888888888",
"8888888883   @;:::::::::::::::::::::::::::::::::::::::::::;@   38888888888",
"888888883   @;:::::::::::::::::::::::::::::::::::::::::::::;@   3888888888",
"88888886   @;:::::::::::::::::::::::::::::::::::::::::::::::;@   488888888",
"8888888%  +;:::::::::::::::::::::::::::::::::::::::::::::::::;+  o88888888",
"88888882   &:::::::::::::::::::::::::::::::::::::::::::::::::&   188888888",
"88888888,   &:::::::::::::::::::::::::::::::::::::::::::::::&   ,888888888",
"888888888,   &:::::::::::::::::::::::::::::::::::::::::::::&   ,8888888888",
"8888888888,   &:::::::::::::::::::::::::::::::::::::::::::&   ,88888888888",
"88888888888,   &:::-O                               O=:::&   ,888888888888",
"888888888888,   &::X                                 .::&   ,8888888888888",
"8888888888888,   &:                                   :&   ,88888888888888",
"88888888888888,   &   88888888888888888888888888888   &   ,888888888888888",
"888888888888888,      88888888888888888888888888888      ,8888888888888888",
"8888888888888888,     88888888888888888888888888888     ,88888888888888888",
"88888888888888888,    88888888888888888888888888888    ,888888888888888888",
"888888888888888888,   88888888888888888888888888888o  ,8888888888888888888",
"88888888888888888881 <888888888888888888888888888882 <88888888888888888888",
"88888888888888888888888888888888888888888888888888888888888888888888888888",
"88888888888888888888888888888888888888888888888888888888888888888888888888",
"88888888888888888888888888888888888888888888888888888888888888888888888888",
"88888888888888888888888888888888888888888888888888888888888888888888888888",
"88888888888888888888888888888888888888888888888888888888888888888888888888",
"88888888888888888888888888888888888888888888888888888888888888888888888888",
"88888888888888888888888888888888888888888888888888888888888888888888888888",
"88888888888888888888888888888888888888888888888888888888888888888888888888",
"88888888888888888888888888888888888888888888888888888888888888888888888888",
"88888888888888888888888888888888888888888888888888888888888888888888888888",
"88888888888888888888888888888888888888888888888888888888888888888888888888",
"88888888888888888888888888888888888888888888888888888888888888888888888888",
"88888888888888888888888888888888888888888888888888888888888888888888888888",
"88888888888888888888888888888888888888888888888888888888888888888888888888",
"88888888888888888888888888888888888888888888888888888888888888888888888888",
"88888888888888888888888888888888888888888888888888888888888888888888888888",
"88888888888888888888888888888888888888888888888888888888888888888888888888",
"88888888888888888888888888888888888888888888888888888888888888888888888888",
"88888888888888888888888888888888888888888888888888888888888888888888888888",
"88888888888888888888888888888888888888888888888888888888888888888888888888",
"88888888888888888888888888888888888888888888888888888888888888888888888888",
"88888888888888888888888888888888888888888888888888888888888888888888888888",
"88888888888888888888888888888888888888888888888888888888888888888888888888",
"88888888888888888888888888888888888888888888888888888888888888888888888888",
"88888888888888888888888888888888888888888888888888888888888888888888888888",
"88888888888888888888888888888888888888888888888888888888888888888888888888",
"88888888888888888888888888888888888888888888888888888888888888888888888888",
"88888888888888888888888888888888888888888888888888888888888888888888888888",
"88888888888888888888888888888888888888888888888888888888888888888888888888",
"88888888888888888888888888888888888888888888888888888888888888888888888888"
};
