/* XPM */
static char *Ball_Red_xpm[] = {
/* columns rows colors chars-per-pixel */
"16 16 72 1",
"  c Black",
"@ c #F7BCAE",
"I c #C55353",
"w c #EE8C7B",
"8 c #E0999A",
"O c #E8ADAF",
"# c #FFC7B5",
"F c #D53D3D",
"t c #E98271",
"H c #D14C4B",
", c #FCB4A0",
"d c #DF746B",
"D c #AD7878",
"J c #CC3F3E",
"> c #E88F83",
"e c #D36666",
"- c #FAA289",
"S c #CD4340",
"p c #E57669",
"0 c #F09482",
"& c #EEA095",
"y c #E88070",
"V c #B37777",
"n c #C8A3A3",
"f c #E0695E",
"U c #C7C2C2",
"k c #DB6257",
"l c #DB6259",
"u c #D15A5A",
"1 c #F69F88",
"q c #EE8B7A",
"$ c #FFC6B0",
"B c #D14E49",
"% c #E59C9B",
"N c #D14B46",
"9 c #E78D85",
"* c #FFC0AA",
"c c #D4524C",
"+ c #E59089",
"P c #BC5151",
"2 c #F7A089",
"g c #DF6A5F",
"3 c #F7A08A",
"j c #DD736F",
"m c #DE4E4B",
"i c #E57E73",
"5 c #F8B09D",
": c #EABDBF",
"a c #E5786B",
"Z c #D04C4A",
"K c #B3ABAB",
"= c #FBA890",
"L c #B06364",
"7 c #F39481",
"z c #D26968",
"X c #E28E8C",
". c #E6A8A8",
"h c #D48988",
"< c #F79C86",
"C c #D75553",
"6 c #F2927F",
"; c #FAA38B",
"b c #D5554F",
"v c #D55550",
"A c #CD413E",
"s c #D16766",
"4 c #DE7C78",
"G c #DA5351",
"o c #E18682",
"r c #E6877B",
"M c #D3524F",
"x c #DB635D",
/* pixels */
"     .XooX.     ",
"   O+@#$$#@+O   ",
"  %&*=-;;-=*&%  ",
" :>,<123321<,>: ",
" 45677777777654 ",
"890qwwwwwwwwq098",
"ertyyyyyyyyyytre",
"uipaaaaaaaaaapiu",
"sdfggggggggggfds",
"hjkllllllllllkjh",
" zxcvbbbbbbvcxz ",
" nmMNBBBBBBNMmn ",
"  VCZAASSAAZCV  ",
"   DFGHJJHGFD   ",
"    KLPIIPLK    ",
"        U       "
};
