/* XPM */
static char *Ball_Yellow_xpm[] = {
/* columns rows colors chars-per-pixel */
"16 16 77 1",
"  c Black",
"R c #DA994D",
"z c #F5BB18",
"J c #F1A129",
"e c #FADC0F",
"0 c #F8D157",
"$ c #FFFE74",
"@ c #F7D08B",
"9 c #F4C998",
"C c #F2A823",
"X c #F7D3A9",
"T c #C59662",
"S c #C39F76",
"n c #F3AF1F",
"a c #F7CC2B",
"p c #F2AB4B",
"O c #F5C78A",
"W c #C9C5C2",
"k c #EBBC86",
": c #F8DAC1",
"f c #EEAE5E",
"M c #F4B023",
"t c #F8D036",
"* c #FADF7F",
"2 c #FDEB07",
"x c #F5BA1E",
"c c #F5BA1F",
"q c #FAE119",
"H c #F1A027",
"w c #FADB0C",
"N c #D4BCA3",
"V c #F2AD2B",
"h c #F6C116",
"; c #FEEF00",
"Z c #F2AA26",
"A c #F2AA27",
"l c #F5BD4C",
"6 c #FBE205",
"& c #F7CC97",
"7 c #FBE208",
"8 c #FBE20B",
"o c #F7C993",
"F c #F2A733",
"4 c #F5C066",
"g c #F6C138",
"> c #F9D462",
"B c #FFB032",
"G c #F0A128",
"s c #F8CC13",
"d c #F8CC17",
"+ c #F8D3B0",
"v c #EEB05D",
"% c #FFFF56",
"E c #DF9E4D",
"< c #FDEA00",
"1 c #FDEA02",
"# c #FDF19C",
"y c #F9D311",
"3 c #FDEA07",
"U c #F39F2E",
"r c #F1B159",
"5 c #FFF346",
", c #FDF645",
"- c #FEF100",
"I c #F6A63C",
"K c #BB9B76",
"j c #F6C01B",
". c #FAE7D5",
"P c #FEAE44",
"L c #FEA230",
"Y c #B5B0AC",
"b c #F6BA31",
"u c #F8D112",
"i c #F8D113",
"D c #FAAE43",
"= c #FFFE4C",
"m c #F4B123",
/* pixels */
"    .XoOOoX.    ",
"   +@#$%%$#@+   ",
"  &*=-;;;;-=*&  ",
" :>,<123321<,>: ",
" 45678888887654 ",
"90qweeeeeeeewq09",
"rtyuiiiiiiiiuytr",
"pasddddddddddsap",
"fghjjjjjjjjjjhgf",
"klzxccccccccxzlk",
" vbnmMMMMMMmnbv ",
" NBVCZAAAAZCVBN ",
"  SDFGHJJHGFDS  ",
"   KLPIUUIPLK   ",
"    YTREERTY    ",
"       WW       "
};
