/* XPM */
static char *Ball_Green_xpm[] = {
/* columns rows colors chars-per-pixel */
"16 16 76 1",
"  c Black",
"B c #19B212",
"K c #659B65",
"U c #0AA007",
"x c #34BD21",
"* c #BEFF99",
"u c #5ED73E",
"g c #3FAF3F",
"= c #8DF85E",
"M c #26B219",
"m c #26B21A",
"k c #41C32A",
"b c #37BB2B",
"I c #1AA716",
"e c #69E046",
"3 c #84F158",
"# c #CBFFAE",
"@ c #C3F1B5",
"y c #66D350",
": c #AADAAC",
"% c #84CE84",
"; c #85F554",
"j c #40C428",
"i c #5BD53C",
"9 c #76E64D",
"8 c #76E64E",
"d c #4FD034",
"v c #41B13F",
"w c #7BE756",
"l c #6CBB6D",
"V c #23B019",
"Z c #1CAC13",
"A c #1CAC14",
"t c #3DB13B",
"c c #35BD24",
"h c #4DC43D",
", c #ACF989",
"N c #95BC96",
"a c #2DAC2B",
"- c #82F651",
"o c #75C773",
"H c #0CA106",
"1 c #82F056",
"E c #289F29",
"Y c #AAB0AA",
"f c #51CF36",
"0 c #7FC980",
"q c #72D462",
"L c #03A302",
"+ c #82D07D",
". c #95D396",
"J c #0FA209",
"C c #19AA10",
"4 c #5CC155",
"< c #7EF050",
"n c #23B216",
"X c #7BC97B",
"G c #0DA207",
"2 c #83F157",
"D c #23AF20",
"O c #98D49A",
"z c #4CBF42",
"s c #59CE42",
"p c #5CD53C",
"R c #299A2A",
"r c #6BE148",
"5 c #A7F785",
"S c #62A062",
"7 c #75E64D",
"P c #1FAF1D",
"F c #1AA814",
"& c #9AE28D",
"$ c #C4FFA1",
"6 c #73E64A",
"> c #7BD76D",
"T c #489648",
/* pixels */
"     .XooX.     ",
"   O+@#$$#@+O   ",
"  %&*=-;;-=*&%  ",
" :>,<123321<,>: ",
" 45678899887654 ",
"0qwerrrrrrrrewq0",
"tyuippppppppiuyt",
"asdffffffffffdsa",
"ghjkkkkkkkkkkjhg",
"lzxccccccccccxzl",
" vbnmMMMMMMmnbv ",
" NBVCZAZZAZCVBN ",
"  SDFGHJJHGFDS  ",
"   KLPIUUIPLK   ",
"    YTREERTY    ",
"                "
};
