/* XPM */
static char *connected[] = {
/* columns rows colors chars-per-pixel */
"22 22 70 1",
"  c #020202",
". c #0B0B0B",
"X c #141414",
"o c #1B1B1B",
"O c #1F201F",
"+ c #222222",
"@ c #272729",
"# c #2C2C2C",
"$ c #353534",
"% c #373834",
"& c #3B3C3C",
"* c #43413F",
"= c #3F3F41",
"- c #434343",
"; c #484646",
": c #4B4B4B",
"> c #4F4F51",
", c #4F5050",
"< c #535354",
"1 c #5A5857",
"2 c #5C5C5B",
"3 c #5F5E60",
"4 c #605F61",
"5 c #646464",
"6 c #676865",
"7 c #686867",
"8 c #6C6C6C",
"9 c #6E716E",
"0 c #757574",
"q c #787777",
"w c #797877",
"e c #777778",
"r c #7C7C7B",
"t c #848484",
"y c #888684",
"u c #86848A",
"i c #86888A",
"p c #8D8D8D",
"a c #91928F",
"s c #8F8F90",
"d c #939392",
"f c #989896",
"g c #9B9B9B",
"h c #A09F9E",
"j c #A2A2A1",
"k c #ACACAC",
"l c #AFAFB0",
"z c #B7B7BC",
"x c #B7B9B9",
"c c #BBBBBC",
"v c #BEBCC3",
"b c #BFC3C6",
"n c #C7C8CA",
"m c #CACACB",
"M c gray83",
"N c #D6D6D9",
"B c #D7D8DD",
"V c #D9D9D9",
"C c #D0D8E2",
"Z c #D8DDE7",
"A c #DAE0E6",
"S c #E1E1E2",
"D c #E3E6EA",
"F c #ECEDED",
"G c #EBEEF4",
"H c #EEF3F8",
"J c #F0F1F1",
"K c #F2F5F9",
"L c #F7FCFF",
"P c #FDFEFE",
/* pixels */
"Fy%0867768rqq000qe5qJJ",
"g$MSNVVVVMmmmmmmmMm2dJ",
"$kcggjjjjjjjjjjjjgkx<J",
"&kfggfggfgfgghdyfjgk7J",
"=ddpppppdqtiaydcpsfj5J",
"-tttttty5tFB7wNPz0pg2J",
"-0wqqew5dKPDmbLBtrtd1J",
"-788801;hPb0cPb68rri<J",
"-1557%8S1pv0rcn:800r:J",
";:12&5JLK-pv89Sm2780:J",
";&<,onPCHK&uvxKF<257;J",
":#--#:SGZKK$rPK2-222-J",
":+&$- :PDAKK*t2+2<<<-J",
":X#$X#nPPHCPK .%::::-J",
"< @XOFPn2SPK-.++$:;--J",
"< o.+LF@ $j& +ooX#;&-J",
": XX +o o   oXXXX.+%;J",
";  ..  ........... X-J",
"7     ..            #J",
"nX                 #lJ",
"Jkq253344444444443>kFJ",
"JJJJJJJJJJJJJJJJJJJJJJ"
};
