/* XPM */
static const char *down_arrow[] = {
/* columns rows colors chars-per-pixel */
"13 16 2 1",
"  c #303030",
". c #C8C8C8",
/* pixels */
".............",
".............",
".............",
".............",
".............",
".............",
"...       ...",
"....     ....",
".....   .....",
"...... ......",
".............",
".............",
".............",
".............",
".............",
"............."
};
