/* XPM */
static char *guide_arrow_down_16_xpm[] = {
/* columns rows colors chars-per-pixel */
"16 16 16 1",
"  c Black",
"; c #C8CDD0",
". c #FFFFFF",
"- c #1F2224",
"$ c #464C4E",
"o c #676869",
"X c #999999",
"* c #DDE6EA",
"= c #1D2123",
"O c #D8D9DA",
": c #A4AEB4",
"+ c #AFB7BC",
"@ c #76797B",
"# c #777A7B",
"& c #E5EAED",
"% c #484D4F",
/* pixels */
"      ....      ",
"      ....      ",
"X     ....      ",
"      ....      ",
" o    ....      ",
"      ....      ",
"      ....      ",
"   O........+   ",
"    ........    ",
"    @......#    ",
"     ......     ",
"     $....%     ",
"      &..*      ",
"      =..-      ",
"       ;:       ",
"                "
};
