/* XPM */
static char *guide_arrow_right_16_xpm[] = {
/* columns rows colors chars-per-pixel */
"16 16 16 1",
"  c Black",
"$ c #C8CDD0",
"X c #FFFFFF",
"@ c #1F2224",
"* c #464C4E",
"; c #676869",
": c #999999",
"+ c #DDE6EA",
"& c #1D2123",
"- c #D8D9DA",
"# c #A4AEB4",
". c #AFB7BC",
"= c #76797B",
"o c #777A7B",
"% c #E5EAED",
"O c #484D4F",
/* pixels */
"                ",
"                ",
"                ",
"       .        ",
"       XXo      ",
"       XXXXO    ",
"XXXXXXXXXXXX+@  ",
"XXXXXXXXXXXXXX# ",
"XXXXXXXXXXXXXX$ ",
"XXXXXXXXXXXX%&  ",
"       XXXX*    ",
"       XX=      ",
"       -        ",
"                ",
"    ;           ",
"  :             "
};
