/* XPM */
static char *setup[] = {
/* columns rows colors chars-per-pixel */
"23 22 77 1",
"  c #040404",
". c #070807",
"X c #0A0A0A",
"o c #110F11",
"O c #131313",
"+ c #171816",
"@ c #191917",
"# c #1B1B1B",
"$ c #252525",
"% c #292927",
"& c #2C2C2D",
"* c #2F2F30",
"= c #302F30",
"- c #333334",
"; c #39363A",
": c #3B3B3B",
"> c #3F3F40",
", c #434343",
"< c #484846",
"1 c #4C4C4C",
"2 c #504F4F",
"3 c #4F5051",
"4 c #545353",
"5 c #585857",
"6 c #575758",
"7 c #5B5B5B",
"8 c #5E6160",
"9 c #626262",
"0 c #676768",
"q c #67696B",
"w c #6B6B6B",
"e c #6F6F71",
"r c #706F71",
"t c #737474",
"y c #77777C",
"u c #7C7C7C",
"i c #7E807F",
"p c #848484",
"a c #8A8787",
"s c #878789",
"d c #888588",
"f c #87898B",
"g c #8B8B8B",
"h c #90908F",
"j c #8D8D90",
"k c #939394",
"l c #979699",
"z c #97989C",
"x c #9B9B9B",
"c c #9C9FA2",
"v c #A3A4A4",
"b c #A8A7A7",
"n c #ABABAB",
"m c #B0AFAF",
"M c #AFB2B6",
"N c #B3B4B4",
"B c #B6B8BE",
"V c #BBBBBB",
"C c #BBBCC0",
"Z c #C2C2C2",
"A c #C4C7CA",
"S c #CBCBCD",
"D c #CCCCD0",
"F c #D4D4D5",
"G c #D6D7D9",
"H c #DCDDDE",
"J c #DBDEE4",
"K c #DEE3E9",
"L c #E2E5E5",
"P c #E2E5EA",
"I c #E5E8EE",
"U c #EDEDEE",
"Y c #EBEEF2",
"T c #EEF1F4",
"R c #F0F0F0",
"E c #F7F8F9",
"W c #FCFDFE",
/* pixels */
"REk7ssdsssgkkkhggggusER",
"Rb4ZZVVVVVNNNNNNNNVVtxR",
"R4vnxxllxxxxxxxxxxxvnqR",
"R5xkkhlkpakkhkkhgslkvyR",
"R7gfdpNUFduppsdauvNpktR",
"R7uuut0cYFwppyuwNGwuswR",
"R6twmp,zITy7wt6nF9tyu0R",
"R407vHnPKY7ng:bF59wwt9R",
"R4777GUYTkjSEpN4499907R",
"R12513lnkxdDWE8-745774R",
"R1,11:,-rpSWcPWw,11441R",
"R<;,,:<--FWgpjl;:<<<1<R",
"R<&;:-#-LWfsknSto::>,,R",
"R,$-%&:HWpgljWTEtX-;::R",
"R,#%+NWEpkvXyCPPEwO--;R",
"R>O$X:UVix.$XeBJPL-$&-R",
"R:X@@ :SZX+++.qMAN##$-R",
"R-.XXO :wXOO+X 9h$.XO%R",
"R1. ...  ..X.X. . X..#R",
"RvO.    .       .   #tR",
"RFs5,:;;;--&*=&&*=-*eNR",
"RRRRRRRRRRRRRRRRRRRRRRR"
};
