/* XPM */
static const char *disconnected[] = {
/* columns rows colors chars-per-pixel */
"22 22 182 2",
"   c #020000",
".  c #0E0000",
"X  c #130000",
"o  c #1C0101",
"O  c #220201",
"+  c #2B0000",
"@  c #340202",
"#  c #3C0101",
"$  c #2D1B1A",
"%  c #371917",
"&  c #372121",
"*  c #3D2020",
"=  c #3E3230",
"-  c #440303",
";  c #490505",
":  c #430B0B",
">  c #4B0B0C",
",  c #5C0000",
"<  c #500807",
"1  c #540A0A",
"2  c #5C0C0C",
"3  c #451515",
"4  c #4E1717",
"5  c #4E1919",
"6  c #511515",
"7  c #581010",
"8  c #55191A",
"9  c #5A1C1E",
"0  c #620000",
"q  c #6E0203",
"w  c #630E0E",
"e  c #6D0B0B",
"r  c #621111",
"t  c #6B1313",
"y  c #661A19",
"u  c #701414",
"i  c #761919",
"p  c #7C1C1C",
"a  c #5F1F20",
"s  c #532E2C",
"d  c #573030",
"f  c #5F3334",
"g  c #612122",
"h  c #682526",
"j  c #662C2C",
"k  c #712424",
"l  c #7B2324",
"z  c #732A2B",
"x  c #7C2B2B",
"c  c #643734",
"v  c #6B3031",
"b  c #753736",
"n  c #7F3233",
"m  c #753D3E",
"M  c #7A3C3D",
"N  c #5F4848",
"B  c #6D4C4C",
"V  c #7C4546",
"C  c #744C4C",
"Z  c #7C494D",
"A  c #785659",
"S  c #851C1A",
"D  c #941F1F",
"F  c #862424",
"G  c #8A2626",
"H  c #802C2C",
"J  c #8E2C2C",
"K  c #932827",
"L  c #942E2E",
"P  c #823233",
"I  c #893837",
"U  c #8E3C3B",
"Y  c #973636",
"T  c #9A3434",
"R  c #9C3B3A",
"E  c #A13B3C",
"W  c #8B413E",
"Q  c #9C433E",
"!  c #804446",
"~  c #894747",
"^  c #81464A",
"/  c #924340",
"(  c #994243",
")  c #944D4D",
"_  c #8D5354",
"`  c #975152",
"'  c #9C5252",
"]  c #9E5957",
"[  c #A44545",
"{  c #AB4444",
"}  c #A64748",
"|  c #A64A4A",
" . c #AC4D4C",
".. c #A15350",
"X. c #AD5151",
"o. c #AC5D5B",
"O. c #B45454",
"+. c #B55857",
"@. c #B45B5B",
"#. c #BB5E5E",
"$. c #965E60",
"%. c #A95D61",
"&. c #B85F62",
"*. c #886261",
"=. c #8F6C68",
"-. c #9A6D70",
";. c #857E7C",
":. c #8E7B7A",
">. c #947777",
",. c #AD6362",
"<. c #A66869",
"1. c #B56363",
"2. c #BB6464",
"3. c #B66968",
"4. c #BD6969",
"5. c #A7787A",
"6. c #B57374",
"7. c #C26767",
"8. c #C16D6D",
"9. c #C37272",
"0. c #CC7676",
"q. c #CD7E7E",
"w. c #97827A",
"e. c #9F8585",
"r. c #A68182",
"t. c #A68789",
"y. c #B38A90",
"u. c #AB9397",
"i. c #BC9390",
"p. c #B79C9C",
"a. c #BE9E9E",
"s. c #D78686",
"d. c #DD8C8C",
"f. c #C7959A",
"g. c #C2A7A7",
"h. c #C9A6B0",
"j. c #D2AFB4",
"k. c #C4B5B5",
"l. c #C7B9BA",
"z. c #D7B4B2",
"x. c #D3B7BB",
"c. c #D4BABC",
"v. c #DDB9BA",
"b. c #E2A1A1",
"n. c #EAA7A7",
"m. c #E3AAAA",
"M. c #EAA8A8",
"N. c #F6ABAB",
"B. c #FBAEAE",
"V. c #E9B2B2",
"C. c #E2BCC0",
"Z. c #D9C2C8",
"A. c #D9CACE",
"S. c #E1C4C4",
"D. c #E2C1CA",
"F. c #E5CDCD",
"G. c #EFCDCF",
"H. c #E5C7D4",
"J. c #E6CAD5",
"K. c #EACCD1",
"L. c #E7C9D8",
"P. c #E7D3D5",
"I. c #E6D1D9",
"U. c #E7D8DB",
"Y. c #EEDDDE",
"T. c #F7D3D6",
"R. c #F2D7DD",
"E. c #EDDBE0",
"W. c #EBE5E5",
"Q. c #F3E0E6",
"!. c #F5E0EF",
"~. c #FCE5EC",
"^. c #F6EEEE",
"/. c #F8EBEF",
"(. c #F7EFF5",
"). c #FAEBF2",
"_. c #FDEFFC",
"`. c gray94",
"'. c #F9F2F3",
"]. c #FDF0FA",
"[. c #F1F8F8",
"{. c #FFFEFE",
/* pixels */
"{.~ k ' ' _ B B B B B B B B B B C C 3 >.{.`.",
") x V.M.b.n.N.B.N.N.N.N.N.N.N.N.N.B.m.# e.`.",
"t b.q.9.9.9.8.9.9.9.9.9.9.9.9.2.4.9.d.6.j `.",
"I s.4.9.4.4.4.4.4.8.+.{ +.9.O.1.3.+.8.6.P `.",
"H 0.2.2.@.@.@.@.&.E 3.v.1.D X.Y.(.@.O.o.P `.",
"H 7.@.@.X. .X.X.R ,.(.{.).%.D.{.Q.| { ..z `.",
"l #.X.| [ [ } E Q '.{.j.i.{.].S.( L  ./ h `.",
"l +.} R Y [ G K S f.R.=.w.5.{.) q } R I g `.",
"l  .Y J T q ] W U _ y.x.:.;.t.W.U S T x a `.",
"l R G J e M {.P.` <.m -.z.*.h.{.c.0 L k 9 `.",
"p F p e x {./.).K.M # b r.T.{.^.V e F y 8 `.",
"t t i , v {.~.J._.A.m $.Z u.W.c - p i 7 5 `.",
"1 2 t u - f I.Q.L.].F.^ f # 6 - t t t > 4 `.",
"1 < 2 w @ + Z.{.!.H.).U.d - , w 2 2 w - 4 `.",
"> - 2 @ & P.{.C.E.).~.{.N @ 2 1 < < 1 @ 4 `.",
"> + ; o v.{.G.O s {.[.= o ; - - ; ; ; + 8 `.",
": o # X A g.%   X * $ X # @ @ @ @ @ @ X 8 `.",
"- . O O       O o     O o O O o O o X   r `.",
"w .   . . . X o X X X X . . . X . . X . l `.",
"p.@                                 o # k.`.",
"{.a.n x P n P n n P P n P P P n P l ! l.{.`.",
"`.`.`.`.`.`.`.`.`.`.`.`.`.`.`.`.`.`.`.`.`.`."
};
