/* XPM */
static const char *ao_xpm[] = {
/* columns rows colors chars-per-pixel */
"55 55 16 1",
"  c #000000",
". c #4D4D4D",
"X c #686868",
"o c #7C7C7C",
"O c #8C8C8C",
"+ c #9A9A9A",
"@ c #A7A7A7",
"# c #B2B2B2",
"$ c #BDBDBD",
"% c #C7C7C7",
"& c #D0D0D0",
"* c #D9D9D9",
"= c #E1E1E1",
"- c #E9E9E9",
"; c #F0F0F0",
": c #FFFFFF",
/* pixels */
":::::::::::::::::::::::::::::::::::::::::::::::::::::::",
":::::::::::::::::::::::::::::::::::::::::::::::::::::::",
":::::::::::::::::::::::::::::::::::::::::::::::::::::::",
":::::::::::::::::::::::::::::::::::::::::::::::::::::::",
":::::::::::::::::::::::::::::::::::::::::::::::::::::::",
":::::::::::::::::::::::::::::::::::::::::::::::::::::::",
":::::::::::::::::::::::::::::::::::::::::::::::::::::::",
":::::::::::::::::::::::::::::::::::::::::::::::::::::::",
":::::::::::::::::::::::::::::::::::::::::::::::::::::::",
":::::::::::::::::::::::::::::::::::::::::::::::::::::::",
":::::::::::::::::::::::::::::::::::::::::::::::::::::::",
":::::::::::::::::::::::::::::::::::::::::::::::::::::::",
":::::::::::::::::::::::::::::::::::::::::::::::::::::::",
":::::::::::::::::::::::::::::::::::::::::::::::::::::::",
":::::::::::::::::::::::::::::::::::::::::::::::::::::::",
":::::::::::::::::::::::::::::::::::::::::::::::::::::::",
"::::::::::::::- -::::::::::::::::-#o   .O$-::::::::::::",
"::::::::::::::@ @::::::::::::::;O          O-::::::::::",
"::::::::::::::. .:::::::::::::-.            .&:::::::::",
":::::::::::::&   &:::::::::::-.  .#=:::;*@    *::::::::",
":::::::::::::o   o:::::::::::o  o;::::::::-o  .::::::::",
"::::::::::::-     -:::::::::%  X::::::::::::X  @:::::::",
"::::::::::::@  X  @:::::::::X  =::::::::::::=   :::::::",
"::::::::::::.  -  .::::::::*  o::::::::::::::o  &::::::",
":::::::::::&  @:+  &:::::::#  %::::::::::::::%  @::::::",
":::::::::::o  -:*  o:::::::O  =::::::::::::::=  O::::::",
"::::::::::-  o:::X  -::::::.  ::::::::::::::::   ::::::",
"::::::::::@  &:::$  @::::::   ::::::::::::::::   ::::::",
"::::::::::. .::::;  .::::::   ::::::::::::::::   ::::::",
":::::::::&  $:::::+  &:::::   ::::::::::::::::   ::::::",
":::::::::o  ;:::::*  o:::::X  -::::::::::::::;  .::::::",
"::::::::-  @:::::::X  -::::O  *::::::::::::::*  O::::::",
"::::::::@  =:::::::$  @::::$  @::::::::::::::#  #::::::",
"::::::::.             .::::=  .::::::::::::::.  *::::::",
":::::::&               &::::X  $::::::::::::$  .:::::::",
":::::::o               o::::&   -::::::::::-   $:::::::",
"::::::-  X:::::::::::X  -::::o  .=::::::::*.  X::::::::",
"::::::@  &:::::::::::$  @::::-.   @*:::-&O   .-::::::::",
"::::::. .:::::::::::::  .:::::-.            .-:::::::::",
":::::&  @:::::::::::::@  &:::::;O          @;::::::::::",
":::::o  -:::::::::::::-  o:::::::=@o   .O$;::::::::::::",
":::::::::::::::::::::::::::::::::::::::::::::::::::::::",
":::::::::::::::::::::::::::::::::::::::::::::::::::::::",
":::::::::::::::::::::::::::::::::::::::::::::::::::::::",
":::::::::::::::::::::::::::::::::::::::::::::::::::::::",
":::::::::::::::::::::::::::::::::::::::::::::::::::::::",
":::::::::::::::::::::::::::::::::::::::::::::::::::::::",
":::::::::::::::::::::::::::::::::::::::::::::::::::::::",
":::::::::::::::::::::::::::::::::::::::::::::::::::::::",
":::::::::::::::::::::::::::::::::::::::::::::::::::::::",
":::::::::::::::::::::::::::::::::::::::::::::::::::::::",
":::::::::::::::::::::::::::::::::::::::::::::::::::::::",
":::::::::::::::::::::::::::::::::::::::::::::::::::::::",
":::::::::::::::::::::::::::::::::::::::::::::::::::::::",
":::::::::::::::::::::::::::::::::::::::::::::::::::::::"
};
