/* XPM */ 
static const char * brain_icon[] = {
"32 32 7 1",
" 	c None",
"!	c black",
"#	c #008080",
"$	c #000080",
"%	c white",
"&	c #C0C0C0",
"'	c #800080",
"                                ",
"                                ",
"              #$$$$#$$#         ",
"       #$$$$$$$%%%$$&%$#        ",
"      #$%%%%%&%&%&%&%&%$$$#     ",
"    #$$%%$$$$$$$$$$$$$&%$%$#    ",
"   #$%%$$$%%&%%&&&&%$&&$$&%&#   ",
"   $%%$$%&$$$$$$$&&&&$$&&&&$$#  ",
"  #$%%$%&$$%%&&&$$$$&&$$$$$$$$# ",
" #$%%$$&&$%&&&&$&$&%$&$$&&&&&#$ ",
" $%%$$%&$$&$$$$%%&$&$#&&$$&$$&##",
" $%&$%&$$%&$%%%&$$$&$$&&&&$$#!!!",
" $&%&$$$%&$%&&$&&&&&$#&$$&$!&&#!",
" #$&%&&&&&&&$$$$$$!$####$$!&&##!",
"  #$$$$$$&&$!%&&#####&!&&&&&!!!!",
"   $%%&#!$$!%&!!!!&&!!!!&#!!!&#!",
"   $&&&&$#&&!!!##!&&!!#!!!!&#!!#",
"   #!&!!#&&!!##&&!!!##&##!#!!!! ",
"    #!##&&!!!!!&&!!!&&!!!!&!&'# ",
"     #!!!#    !!!!!!!&&#!&#&#!  ",
"               #!#'#!!!!##!#'#  ",
"               #&##'#!!!!!!'!   ",
"                #&##'#'#!!##    ",
"                ##&##'#!!#      ",
"                #&#&##!!#       ",
"                 #&#&!!#        ",
"                  #&#!          ",
"                  ##!!          ",
"                   ###          ",
"                                ",
"                                ",
"                                "};

