/* XPM */
static const char *mac_xhair[] = {
/* width height ncolors chars_per_pixel */
"16 16 3 1",
/* colors */
"  c black",
"X c white",
". c None",
/* pixels */
"................",
"......X. .X.....",
"......X. .X.....",
"......X. .X.....",
"......X. .X.....",
"................",
"................",
"XXXX........XXXX",
".    .......    ",
"................",
"XXXX........XXXX",
"................",
"......X. .X.....",
"......X. .X.....",
"......X. .X.....",
"......X. .X....."
};
