/* XPM */ 
static const char * ao_icon[] = {
"32 32 7 1",
" 	c None",
"!	c black",
"#	c #C0C0C0",
"$	c white",
"%	c #FF0000",
"&	c #FF00FF",
"'	c #800000",
"                                ",
"                                ",
"                                ",
"                                ",
"       !                        ",
"      !!!        !!!!!!!!!!!!!  ",
"    !!! !!!     !!!!!!!!!!!!!!! ",
"   !!!   !!!    !!!!       !!!! ",
"  !!!     !!!   !!!         !!! ",
" !!!       !!!  !!!         !!! ",
" !!!       !!!  !!!         !!! ",
" !!!       !!!  !!!         !!! ",
" !!!       !!!  !!!         !!! ",
" !!!       !!!  !!!         !!! ",
" !!!       !!!  !!!         !!! ",
" !!!       !!!  !!!         !!! ",
" !!!!!!!!!!!!!  !!!         !!! ",
" !!!!!!!!!!!!!  !!!         !!! ",
" !!!       !!!  !!!         !!! ",
" !!!       !!!  !!!         !!! ",
" !!!       !!!  !!!         !!! ",
" !!!       !!!  !!!         !!! ",
" !!!       !!!  !!!         !!! ",
" !!!       !!!  !!!         !!! ",
" !!!       !!!  !!!!       !!!! ",
" !!!       !!!  !!!!!!!!!!!!!!! ",
" !!!       !!!   !!!!!!!!!!!!!  ",
"                                ",
"                                ",
"                                ",
"                                ",
"                                ",
};

