/* XPM */ 
static const char *cam_icon[] = {
"32 32 5 1",
" 	c None",
"!	c black",
"#	c white",
"$	c #808080",
"%	c #C0C0C0",
"                                ",
"                                ",
"                                ",
"                                ",
"              !!!!              ",
"             !###$!             ",
"      !!$   !%%%%!$!  !!!!$     ",
"    !!#$!!!!%%%%%%!!!!###$!!!   ",
"   !%!!!$%%!$$$$$$!$%!!!!!$%%!  ",
"  !########################%$!  ",
" !#%%%%%%%%%%%%%%%%%%%%%%%%$$!  ",
" !#%%%%%%%%%!!!!!%%%%%%%%%%$$!  ",
" !#%%%%%%%!!%%%%#!!%%%%%%%%$!!  ",
" !!!!!!!!!$#####%%%!!!!!!!!!!!  ",
" !$$!$!$!$%%%%%##%$$!$!$!$!!$!  ",
" !$!$!$!%%!!!!!%%$$!$!$!$!$!!!  ",
" !$$!$!%$!$$$$$!$%!$!!!$!$!!$!  ",
" !$!$!$%!$$%#%$$!%$!!!$!$!$!!!  ",
" !$$!!%!$$%#$$$$$!%!!!!$!$!!$!  ",
" !$!$!%!$$#%$$$$$!%!!!$!$!$!!!  ",
" !$$!!%!$$#$$$$$$!%!!!!$!$!!$!  ",
" !$!$!%!$$%$$$$$$!%!!!$!$!$!!!  ",
" !$$!!%!$$$$$$$$$!%!!$!$!$!!$!  ",
" !$!$!$%!$$$$$$$!%$!$!$!$!$!!!  ",
" !$$!$!%$!$$$$$!$%!$!$!$!$!!!   ",
"  !!$!$!%%!!!!!%%!$!$!$!$!$!    ",
"   !!!!!!$%%%%%$!!!!!!!!!!!     ",
"         $!!!!!$                ",
"                                ",
"                                ",
"                                ",
"                                "};
