/* XPM */ 
static const char * loop_icon[] = {
"32 32 5 1",
" 	c None",
"!	c black",
"#	c #008080",
"$	c #00FFFF",
"%	c white",
"                                ",
"                                ",
"                                ",
"                                ",
"                                ",
"                                ",
"      !!!!!!!!!!!!!!!!!!        ",
"    !!!!!!#!#!#!#!#!#!#!!!      ",
"   !!!!!!#!#!#!#!#!#!#!!!!!!    ",
"  !!!!!!!!#!#!#!#!#!#!#!!!!!!   ",
"  !$!!!%!!!#!#!#!#!#!#!!!!!!!!  ",
" !$%!!!$%!#!#!#!#!#!#!#!!!!!$!  ",
" !#$%%%$$%!#!#!#!#!!!!!!!!!$#!  ",
" !#$$$$$#$%!#!#!#!#!$$$$$$$##!  ",
" !##$#$#$#$%!!!!!!!!!$######!!  ",
" !#$$$#$#$#$%!       !$######!  ",
" !##$#$#$#$#$%!       !$####!!  ",
" !#$$$#$#$#$$!!        !$####!  ",
" !##$#$#$#$#!!        !$####!!  ",
" !#$$$#$#$#!!        !$######!  ",
"  !#$#$#$#!!        !$######!!  ",
"   !!!#$#!!        !!!!!!!!!!   ",
"      !#!!         !!!!!!!!!    ",
"      !!!                       ",
"      !!                        ",
"                                ",
"                                ",
"                                ",
"                                ",
"                                ",
"                                ",
"                                "};

