/* XPM */ 
static const char * cal_icon[] = {
"32 32 4 1",
" 	c None",
"!	c black",
"#	c #000080",
"$	c #C0C0C0",
"                                ",
"                                ",
"               ###              ",
"               ###              ",
"               ###              ",
"               ###              ",
"                #               ",
"              #####             ",
"             #  #  #            ",
"             #  #  #            ",
"             #  #  #            ",
"              ## ##             ",
"               # #              ",
"              ## ##             ",
"              #   #             ",
"             ## # ##            ",
"             ## # ##            ",
"         ###############        ",
"            ##  #  ##           ",
"           ##   #   ##          ",
"           ##       ##          ",
"          ##    $    ##         ",
"          ##   $$$   ##         ",
"         ##   $ $ $   ##        ",
"         ##   $ $ $   ##        ",
"        ## $$$$$$$$$$$ ##       ",
"        ##  $   $   $  ##       ",
"       ##  $         $  ##      ",
"       ## $           $ ##      ",
"       # $             $ #      ",
"       #$               $#      ",
"                                "};

