/* XPM */ 
static const char * phd_icon[] = {
"32 32 765 2",
"  	c None",
"! 	c black",
"# 	c #FEFBF7",
"$ 	c #FEF7EB",
"% 	c #FDEDD5",
"& 	c #FBE5C2",
"' 	c #FBDEB5",
"( 	c #FBDCB0",
") 	c #FBD9A6",
"* 	c #FBD8A5",
"+ 	c #FAD7A2",
", 	c #FBDBAE",
"- 	c #FBE4C2",
". 	c #FFFCF8",
"0 	c #FDF5E9",
"1 	c #FDF0DB",
"2 	c #FBE8C8",
"3 	c #FBE4C1",
"4 	c #FBE1B9",
"5 	c #FBE0B8",
"6 	c #FBDCB1",
"7 	c #FBDBAF",
"8 	c #FBD9A9",
"9 	c #FBD7A4",
": 	c #FAD49D",
"; 	c #F9D29B",
"< 	c #FAD7A4",
"= 	c #F9DBCE",
"> 	c #F9CDC1",
"? 	c #FEFAF6",
"@ 	c #FEF2DF",
"A 	c #FCEDD6",
"B 	c #FBE9CD",
"C 	c #FBE6C5",
"D 	c #FBE6C4",
"E 	c #F7E1C0",
"F 	c #EFD8B9",
"G 	c #D3BEA9",
"H 	c #C2B4A8",
"I 	c #C6B29F",
"J 	c #D6BFA3",
"K 	c #EFD1A1",
"L 	c #F8D49E",
"M 	c #F9D39A",
"N 	c #F9D199",
"O 	c #FBDFB6",
"P 	c #F8D0C3",
"Q 	c #F4A996",
"R 	c #F8F2EB",
"S 	c #FCECD9",
"T 	c #FCEBD3",
"U 	c #FCEBD2",
"V 	c #FDEBCA",
"W 	c #E1D5BF",
"X 	c #9892AC",
"Y 	c #57599A",
"Z 	c #42479B",
"[ 	c #3D429B",
"] 	c #3B409A",
"^ 	c #474A99",
"_ 	c #595B9B",
"` 	c #A0919E",
"a 	c #E3C699",
"b 	c #FAD29B",
"c 	c #F9CF96",
"d 	c #F5D0A8",
"e 	c #F8BFAC",
"f 	c #F8BBA8",
"g 	c #F2A18E",
"h 	c #F1A695",
"i 	c #F8D2C8",
"j 	c #F8D0C2",
"k 	c #DFDFDE",
"l 	c #F2E3CB",
"m 	c #FCECD5",
"n 	c #F9E9D2",
"o 	c #C2B9BE",
"p 	c #54569C",
"q 	c #353C98",
"r 	c #393E99",
"s 	c #3C409A",
"t 	c #3B449E",
"u 	c #3D47A0",
"v 	c #3A449D",
"w 	c #363C99",
"x 	c #555598",
"y 	c #C4AC98",
"z 	c #F1C595",
"{ 	c #F1AA8B",
"| 	c #F3A488",
"} 	c #F2A48D",
"~ 	c #F2A18A",
" !	c #EA7261",
"!!	c #F09384",
"#!	c #F0927E",
"$!	c #F4AC99",
"%!	c #FAE9E5",
"&!	c #E1E2E3",
"'!	c #DED1C1",
"(!	c #FAE7C9",
")!	c #FDEFDB",
"*!	c #FDF0DC",
"+!	c #FBEDD9",
",!	c #C5BABE",
"-!	c #484D9F",
".!	c #393E9A",
"0!	c #41469E",
"1!	c #3C56A9",
"2!	c #3375BE",
"3!	c #2785CA",
"4!	c #2090D1",
"5!	c #2685CA",
"6!	c #3869B6",
"7!	c #3F53A6",
"8!	c #3D429D",
"9!	c #505098",
":!	c #D19384",
";!	c #F19175",
"<!	c #F19076",
"=!	c #F0927B",
">!	c #EC8E75",
"?!	c #D88877",
"@!	c #E96959",
"A!	c #F6BCA8",
"B!	c #F6C4B8",
"C!	c #BFBCBA",
"D!	c #F6E1C0",
"E!	c #FCEBD0",
"F!	c #FEF6E6",
"G!	c #FDF1DF",
"H!	c #D8CFCD",
"I!	c #595BA3",
"J!	c #3E439D",
"K!	c #484BA0",
"L!	c #386DB8",
"M!	c #18A1DE",
"N!	c #04B9EF",
"O!	c #09B5EC",
"P!	c #1B9AD8",
"Q!	c #3B67B4",
"R!	c #514A97",
"S!	c #D37A6C",
"T!	c #ED836A",
"U!	c #EF886D",
"V!	c #E7785D",
"W!	c #DE9D85",
"X!	c #F2D0C7",
"Y!	c #EC8271",
"Z!	c #CAC9CA",
"[!	c #DACAB4",
"]!	c #FBE4C0",
"^!	c #FDF3E3",
"_!	c #FEF6E9",
"`!	c #F5EEE4",
"a!	c #8181AD",
"b!	c #3C419B",
"c!	c #4B4B9F",
"d!	c #3575BD",
"e!	c #0BB0EA",
"f!	c #03BAF0",
"g!	c #04B9F0",
"h!	c #03BAF2",
"i!	c #08B9EE",
"j!	c #07B9EE",
"k!	c #06BAF1",
"l!	c #1CABE3",
"m!	c #5C75A8",
"n!	c #E07463",
"o!	c #EA755D",
"p!	c #DC6852",
"q!	c #E38B73",
"r!	c #F7C2B3",
"s!	c #F8CFBF",
"t!	c #F3B8AB",
"u!	c #E0E0E1",
"v!	c #BCB6B1",
"w!	c #F0D5B0",
"x!	c #FCE7C6",
"y!	c #FFF7EC",
"z!	c #FEF8EC",
"{!	c #CDCBD7",
"|!	c #484DA1",
"}!	c #494B9F",
"~!	c #4964AE",
" #	c #11ABE6",
"!#	c #27ADD6",
"##	c #7D9292",
"$#	c #A28874",
"%#	c #9E8978",
"&#	c #71969C",
"'#	c #36B2D8",
"(#	c #31C0F0",
")#	c #6188B4",
"*#	c #DD6454",
"+#	c #D45F4A",
",#	c #DE7F65",
"-#	c #F1A28B",
".#	c #F5B19D",
"0#	c #F7BAA5",
"1#	c #CDCDCF",
"2#	c #BCB0A2",
"3#	c #FBDDB3",
"4#	c #FCECD4",
"5#	c #FEFBF4",
"6#	c #FEFAF4",
"7#	c #8C90B9",
"8#	c #47499F",
"9#	c #5155A5",
":#	c #2E89CA",
";#	c #03BAF1",
"<#	c #05B9EF",
"=#	c #2BACD2",
">#	c #C0795A",
"?#	c #EE6D31",
"@#	c #F36B2D",
"A#	c #EF6D33",
"B#	c #BE8468",
"C#	c #5A9BC8",
"D#	c #435199",
"E#	c #B05153",
"F#	c #DD6F59",
"G#	c #EF8B72",
"H#	c #F19077",
"I#	c #F19E87",
"J#	c #F5B6A1",
"K#	c #EDEDEC",
"L#	c #BBB7B7",
"M#	c #CFBCA0",
"N#	c #FBDFB5",
"O#	c #FEF2E1",
"P#	c #FEFCF7",
"Q#	c #F8F6F3",
"R#	c #6167AB",
"S#	c #4B4DA1",
"T#	c #5564AD",
"U#	c #10ABE5",
"V#	c #1BB2DF",
"W#	c #B77D64",
"X#	c #EF6D31",
"Y#	c #F0783C",
"Z#	c #DD784E",
"[#	c #664F87",
"]#	c #4E5093",
"^#	c #A99BB3",
"_#	c #BB767D",
"`#	c #BF6E72",
"a#	c #E28D72",
"b#	c #F4B386",
"c#	c #F8DDB8",
"d#	c #E2E4E4",
"e#	c #ADACAC",
"f#	c #DCC29F",
"g#	c #FBDDB0",
"h#	c #FEF8F0",
"i#	c #FFFDFB",
"j#	c #DFDDE6",
"k#	c #5559A6",
"l#	c #5455A4",
"m#	c #4673BA",
"n#	c #08B6EC",
"o#	c #569DAF",
"p#	c #E96D37",
"q#	c #F07334",
"r#	c #F39545",
"s#	c #F7C354",
"t#	c #EAA958",
"u#	c #825C78",
"v#	c #5E619A",
"w#	c #A4AAC5",
"x#	c #8BACD2",
"y#	c #7189C1",
"z#	c #5452A0",
"{#	c #A88F95",
"|#	c #F5CC96",
"}#	c #FAD5A3",
"~#	c #D2D3D4",
" $	c #A3A19D",
"!$	c #E6C9A0",
"#$	c #FBDCAE",
"$$	c #FFFAF2",
"%$	c #FFFEFC",
"&$	c #C9CCE1",
"'$	c #5052A3",
"($	c #5858A6",
")$	c #4183C5",
"*$	c #07B6ED",
"+$	c #0AB8EC",
",$	c #888F8B",
"-$	c #F46B2C",
".$	c #F29345",
"0$	c #F8D75F",
"1$	c #F6DC62",
"2$	c #9C8C7D",
"3$	c #6A6A9E",
"4$	c #A49CAE",
"5$	c #C2A7A5",
"6$	c #9BD3EF",
"7$	c #82B4DD",
"8$	c #5659A7",
"9$	c #827C9E",
":$	c #EECB99",
";$	c #F9D19B",
"<$	c #FEFAF3",
"=$	c #C7CACC",
">$	c #A3A09B",
"?$	c #EBCF9D",
"@$	c #FAD8A7",
"A$	c #FFFAF1",
"B$	c white",
"C$	c #C6C9E0",
"D$	c #5051A3",
"E$	c #5C5EA7",
"F$	c #4085C6",
"G$	c #15B5E4",
"H$	c #A78473",
"I$	c #F5B24E",
"J$	c #FAE05E",
"K$	c #CDBC77",
"L$	c #7677A3",
"M$	c #BDB4B0",
"N$	c #E4B099",
"O$	c #ECC399",
"P$	c #B0DEF2",
"Q$	c #9FC7E6",
"R$	c #5A5DA8",
"S$	c #67649F",
"T$	c #E9CD9B",
"U$	c #F9D099",
"V$	c #FEF6EB",
"W$	c #C1C2C3",
"X$	c #A39E96",
"Y$	c #EDCE9C",
"Z$	c #FAD7A5",
"[$	c #5353A4",
"]$	c #5C5DA7",
"^$	c #4288C7",
"_$	c #9E8976",
"`$	c #F5BB53",
"a$	c #F7E168",
"b$	c #C6BC8E",
"c$	c #C0B7A6",
"d$	c #F9E8C8",
"e$	c #FACDAE",
"f$	c #F7D1B5",
"g$	c #CBE5F1",
"h$	c #AAC7E4",
"i$	c #5F61AB",
"j$	c #5D589B",
"k$	c #E7CB9B",
"l$	c #F9D49E",
"m$	c #FDF2E2",
"n$	c #A19D96",
"o$	c #EACA9B",
"p$	c #FAD5A2",
"q$	c #FEF9F1",
"r$	c #CACDE2",
"s$	c #5254A4",
"t$	c #5A5BA6",
"u$	c #4183C4",
"v$	c #0CB5EB",
"w$	c #8E8C82",
"x$	c #F4A84C",
"y$	c #F9E268",
"z$	c #F9E18C",
"{$	c #DAC8A4",
"|$	c #E3D4C4",
"}$	c #F8D6C3",
"~$	c #F5E1D0",
" %	c #D2E9F4",
"!%	c #C2CEE6",
"#%	c #5C5EA9",
"$%	c #F9D49D",
"%%	c #FCF1DF",
"&%	c #C2C3C3",
"'%	c #9E9B96",
"(%	c #E3C094",
")%	c #FAD39D",
"*%	c #FEF4E7",
"+%	c #FEF8FA",
",%	c #DB97B0",
"-%	c #7C4084",
".%	c #63549D",
"0%	c #5574B7",
"1%	c #07B6EE",
"2%	c #6899A3",
"3%	c #EF6C31",
"4%	c #EF7035",
"5%	c #F28547",
"6%	c #F7C162",
"7%	c #FBDF8B",
"8%	c #ECD39C",
"9%	c #C8B59E",
":%	c #EAC9B5",
";%	c #F4E9DF",
"<%	c #DEE6F1",
"=%	c #BDBFDB",
">%	c #585BA8",
"?%	c #6967A0",
"@%	c #E9CF9D",
"A%	c #F9D49F",
"B%	c #FEF5E9",
"C%	c #C6C9CB",
"D%	c #A19E9E",
"E%	c #D9B892",
"F%	c #FAD395",
"G%	c #EFAFBF",
"H%	c #CE093B",
"I%	c #CC0033",
"J%	c #B3144D",
"K%	c #784B8C",
"L%	c #1AA5E0",
"M%	c #28ABD6",
"N%	c #CD734F",
"O%	c #DC3232",
"P%	c #E96140",
"Q%	c #F49562",
"R%	c #F5AE7A",
"S%	c #F4BB97",
"T%	c #CCA38E",
"U%	c #CC5768",
"V%	c #DDB1BE",
"W%	c #D35075",
"X%	c #BC3E6D",
"Y%	c #7E3479",
"Z%	c #856E97",
"[%	c #EDD09E",
"]%	c #FAD5A1",
"^%	c #FEF8EF",
"_%	c #CCCECF",
"`%	c #9C9DA0",
"a%	c #C3AD8F",
"b%	c #FACF90",
"c%	c #FCE3BF",
"d%	c #F7D4DC",
"e%	c #D21C4A",
"f%	c #B93163",
"g%	c #C0093F",
"h%	c #C6063A",
"i%	c #6D5D97",
"j%	c #687C9B",
"k%	c #CC0133",
"l%	c #E85F41",
"m%	c #F38C57",
"n%	c #F49B73",
"o%	c #F4AD83",
"p%	c #E2656B",
"q%	c #CA093A",
"r%	c #BAA3B6",
"s%	c #C95279",
"t%	c #C30F43",
"u%	c #CA0135",
"v%	c #CB113D",
"w%	c #E57570",
"x%	c #F8CEA6",
"y%	c #FEFDFA",
"z%	c #D5D6D7",
"{%	c #A3A2A6",
"|%	c #AA9F8E",
"}%	c #F7CA89",
"~%	c #FAD7A7",
" &	c #FDF1EB",
"!&	c #DD5476",
"#&	c #BE2A5A",
"$&	c #7A3279",
"%&	c #BC0A41",
"&&	c #C00B40",
"'&	c #318FC8",
"(&	c #4E7DB0",
")&	c #C70A3A",
"*&	c #D8785A",
"+&	c #EC8B5A",
",&	c #F1996E",
"-&	c #F2A984",
".&	c #D85B67",
"0&	c #C71644",
"1&	c #A3B1BF",
"2&	c #A29AB9",
"3&	c #A22964",
"4&	c #B51248",
"5&	c #CD1B41",
"6&	c #CE0837",
"7&	c #D9405B",
"8&	c #F9E1E5",
"9&	c #DEDFDF",
":&	c #B2B3B8",
";&	c #9C9892",
"<&	c #E9C489",
"=&	c #F9CD8F",
">&	c #FADED0",
"?&	c #D83D64",
"@&	c #D22E59",
"A&	c #7E70AC",
"B&	c #6F2F7A",
"C&	c #CB0134",
"D&	c #903970",
"E&	c #13ABE4",
"F&	c #63659A",
"G&	c #B02356",
"H&	c #6AADD3",
"I&	c #98B0C0",
"J&	c #ABB8C3",
"K&	c #AEC5D1",
"L&	c #BD547C",
"M&	c #C62351",
"N&	c #8EAABB",
"O&	c #7F5683",
"P&	c #C1073C",
"Q&	c #A15076",
"R&	c #EBB89A",
"S&	c #DE5462",
"T&	c #CD0435",
"U&	c #DE5C7C",
"V&	c #E9EAE9",
"W&	c #C4C7C9",
"X&	c #949697",
"Y&	c #CEB487",
"Z&	c #F8C987",
"[&	c #F4BC99",
"]&	c #D21F4B",
"^&	c #E26D8A",
"_&	c #D0CFE3",
"`&	c #5E58A3",
"a&	c #A71451",
"b&	c #B5134B",
"c&	c #546EB0",
"d&	c #8C3C72",
"e&	c #9E386A",
"f&	c #48B7E6",
"g&	c #5DC6F2",
"h&	c #68C9F3",
"i&	c #90D2F1",
"j&	c #BF3362",
"k&	c #B03F71",
"l&	c #696DA3",
"m&	c #80386A",
"n&	c #C60A3C",
"o&	c #C29099",
"p&	c #FADFB5",
"q&	c #F9D4AF",
"r&	c #DE5770",
"s&	c #CD0436",
"t&	c #F5F5F5",
"u&	c #D2D4D7",
"v&	c #A3A6AC",
"w&	c #A09A90",
"x&	c #F0C483",
"y&	c #F1A975",
"z&	c #D0123F",
"{&	c #EEABBB",
"|&	c #FBFBFD",
"}&	c #B1B3D3",
"~&	c #912566",
" '	c #B21049",
"!'	c #614794",
"#'	c #A31E5A",
"$'	c #95386C",
"%'	c #5B92C4",
"&'	c #6B91C1",
"''	c #8390BD",
"('	c #9183AF",
")'	c #C31547",
"*'	c #843175",
"+'	c #464A9E",
",'	c #892461",
"-'	c #C91741",
".'	c #CCB29C",
"0'	c #F6DBB1",
"1'	c #FDEBD1",
"2'	c #F5CFD7",
"3'	c #FEFEFE",
"4'	c #DEDFE0",
"5'	c #B9BDC3",
"6'	c #8E9292",
"7'	c #C7AD85",
"8'	c #EA8F69",
"9'	c #CD0335",
":'	c #F5CCD1",
";'	c #F5EAEF",
"<'	c #C73965",
"='	c #9F1857",
">'	c #593B8D",
"?'	c #B40D46",
"@'	c #C5063B",
"A'	c #B61249",
"B'	c #A81954",
"C'	c #A91551",
"D'	c #9F1A59",
"E'	c #C2053B",
"F'	c #643181",
"G'	c #3D419B",
"H'	c #98235F",
"I'	c #C83351",
"J'	c #BCAD99",
"K'	c #E2CCAD",
"L'	c #FDF7ED",
"M'	c #FAE5EA",
"N'	c #CE0D3E",
"O'	c #F1F1F1",
"P'	c #CCCDCF",
"Q'	c #9FA2A5",
"R'	c #9C988D",
"S'	c #D56E62",
"T'	c #CF0D39",
"U'	c #FBE0C1",
"V'	c #FBEBED",
"W'	c #E26F8B",
"X'	c #D42C56",
"Y'	c #B692B1",
"Z'	c #794285",
"['	c #AE0D49",
"]'	c #69307E",
"^'	c #484298",
"_'	c #40449D",
"`'	c #7A2871",
"a'	c #B70841",
"b'	c #49318A",
"c'	c #7B7BAE",
"d'	c #CB3A5B",
"e'	c #C65667",
"f'	c #BEAF9B",
"g'	c #DFD6C9",
"h'	c #FEFDFB",
"i'	c #E994A9",
"j'	c #DD5778",
"k'	c #E3E3E4",
"l'	c #C2C3C4",
"m'	c #939596",
"n'	c #AF5165",
"o'	c #D1183B",
"p'	c #E3685E",
"q'	c #D93B58",
"r'	c #E3718C",
"s'	c #FAE4EA",
"t'	c #FDFDFE",
"u'	c #E4CEDD",
"v'	c #CB2452",
"w'	c #853778",
"x'	c #444BA0",
"y'	c #42499F",
"z'	c #952261",
"{'	c #C02B58",
"|'	c #BCB3BA",
"}'	c #F3E5CF",
"~'	c #D62F52",
" (	c #DB8184",
"!(	c #D8CFC2",
"#(	c #FAFAFA",
"$(	c #D6345D",
"%(	c #F6D0D9",
"&(	c #F7F7F8",
"'(	c #B9A4AC",
"((	c #BF264D",
")(	c #C51D44",
"*(	c #DF7A64",
"+(	c #F2B07C",
",(	c #FAE2C4",
"-(	c #FFFCF9",
".(	c #FAE7EC",
"0(	c #D6365E",
"1(	c #DD859D",
"2(	c #CDC5D4",
"3(	c #C9C6D6",
"4(	c #C8C6D3",
"5(	c #CD2F58",
"6(	c #E3808F",
"7(	c #FBEED9",
"8(	c #FDECD2",
"9(	c #D3254C",
":(	c #F0B8B7",
";(	c #FAF7F2",
"<(	c #DE5778",
"=(	c #E7839B",
">(	c #F9E0E6",
"?(	c #F2F3F3",
"@(	c #D3CCCF",
"A(	c #C74667",
"B(	c #B0425D",
"C(	c #AC9F8C",
"D(	c #E6BE80",
"E(	c #F7C885",
"F(	c #FBDEB3",
"G(	c #FEF7ED",
"H(	c #D94065",
"I(	c #F9DFDF",
"J(	c #D01542",
"K(	c #F2B7B4",
"L(	c #FDEFD9",
"M(	c #F2DACA",
"N(	c #D84265",
"O(	c #F8DBE0",
"P(	c #FBECF0",
"Q(	c #DB4C70",
"R(	c #D2214D",
"S(	c #DD5375",
"T(	c #DA476C",
"U(	c #EEA9BA",
"V(	c #EFF0F0",
"W(	c #D14266",
"X(	c #BC4B69",
"Y(	c #909295",
"Z(	c #9E998C",
"[(	c #CFB286",
"](	c #F4C47D",
"^(	c #F8CE90",
"_(	c #FADCBC",
"`(	c #E1687A",
"a(	c #EA94A7",
"b(	c #FEF8F4",
"c(	c #FEF9F0",
"d(	c #FCEEE5",
"e(	c #D52E54",
"f(	c #F6D1C0",
"g(	c #E8D7C2",
"h(	c #E6D6D6",
"i(	c #ECA4B5",
"j(	c #E57F99",
"k(	c #D3234F",
"l(	c #D2204C",
"m(	c #EC9EB2",
"n(	c #F7D7DF",
"o(	c #FDF6F8",
"p(	c #DE5D7E",
"q(	c #D3758D",
"r(	c #BDBEC0",
"s(	c #9B9FA2",
"t(	c #919493",
"u(	c #9D988D",
"v(	c #C9AF84",
"w(	c #E1BF88",
"x(	c #E8BD8C",
"y(	c #EDC898",
"z(	c #EFD2A6",
"{(	c #EED1A8",
"|(	c #E0B09C",
"}(	c #C8475C",
"~(	c #C4B7AC",
" )	c #E1E1E1",
"!)	c #FEFDFC",
"#)	c #EFAEBE",
"$)	c #DA486D",
"%)	c #E6859D",
"&)	c #FAE6EC",
"')	c #FFFDFD",
"()	c #E6E7E7",
"))	c #CFD1D4",
"*)	c #B4B5B7",
"+)	c #A5A5A8",
",)	c #949695",
"-)	c #969592",
".)	c #9E9991",
"0)	c #A89E8E",
"1)	c #A49E91",
"2)	c #A7A296",
"3)	c #B3A7A8",
"4)	c #D4BEC4",
"5)	c #F2F2F2",
"6)	c #FEFAFB",
"7)	c #FCF3F5",
"8)	c #EAEBEC",
"9)	c #D6D8D9",
":)	c #BFC2C4",
";)	c #B8B9BC",
"<)	c #B2B2B6",
"=)	c #BFC2C5",
">)	c #DCDCDD",
"                  # $ % & ' ( ) * + , -                         ",
"              . 0 1 2 3 4 5 6 7 8 9 : ; <         = >           ",
"            ? @ A B C D E F G H I J K L M N O     P Q           ",
"          R S T T U V W X Y Z [ ] ^ _ ` a b c d e f g h     i j ",
"        k l m 1 A n o p q r s t u v ] w x y z { | } ~  !!!#!$!%!",
"      &!'!(!)!*!+!,!-!.!0!1!2!3!4!5!6!7!8!9!:!;!<!=!>!?!@!A!B!  ",
"      C!D!E!F!G!H!I!J!K!L!M!N!N!N!N!O!P!Q!R!S!T!U!V!W!X!Y!B!    ",
"    Z![!]!^!_!`!a!b!c!d!e!f!g!h!i!j!h!k!l!m!n!o!p!q!r!s!t!B!    ",
"  u!v!w!x!y!z!{!|!}!~! #g!N!!###$#%#&#'#(#)#*#+#,#-#.#0#B!B!    ",
"  1#2#3#4#5#6#7#8#9#:#;#<#=#>#?#@#@#A#B#C#D#E#F#G#H#I#J#B!      ",
"K#L#M#N#O#P#Q#R#S#T#U#f!V#W#X#X#X#X#Y#Z#[#]#^#_#`#a#b#c#        ",
"d#e#f#g#h#i#j#k#l#m#n#f!o#p#X#q#r#s#t#u#v#w#x#y#z#{#|#}#        ",
"~# $!$#$$$%$&$'$($)$*$+$,$-$X#.$0$1$2$3$4$5$6$7$8$9$:$;$<$      ",
"=$>$?$@$A$B$C$D$E$F$*$G$H$-$X#I$J$K$L$M$N$O$P$Q$R$S$T$U$V$      ",
"W$X$Y$Z$A$B$C$[$]$^$*$G$_$-$X#`$a$b$c$d$e$f$g$h$i$j$k$l$m$      ",
"W$n$o$p$q$B$r$s$t$u$*$v$w$-$X#x$y$z${$|$}$~$ %!%#%j$k$$%%%      ",
"&%'%(%)%*%+%,%-%.%0%1%;#2%3%4%5%6%7%8%9%:%;%<%=%>%?%@%A%B%      ",
"C%D%E%F%A G%H%I%J%K%L%h!M%N%O%P%Q%R%S%T%U%V%W%X%Y%Z%[%]%^%      ",
"_%`%a%b%c%d%e%f%g%h%i%n#<#j%k%l%m%n%o%p%q%r%s%t%u%v%w%x%y%      ",
"z%{%|%}%~% &!&#&$&%&&&'&f!(&)&*&+&,&-&.&0&1&2&3&4&5&6&7&8&      ",
"9&:&;&<&=&>&?&@&A&B&C&D&E&F&G&H&I&J&K&L&M&N&O&P&Q&R&S&T&U&      ",
"V&W&X&Y&Z&[&]&^&_&`&a&b&c&d&e&f&g&h&i&j&k&l&m&n&o&p&q&r&s&      ",
"t&u&v&w&x&y&z&{&|&}&~& '!'#'$'%'&'''(')'*'+','-'.'0'1'2'I%      ",
"3'4'5'6'7'8'9':'B$;'<'='>'?'@'A'B'C'D'E'F'G'H'I'J'K'L'M'N'      ",
"  O'P'Q'R'S'T'U'V'W'X'Y'Z'I%[']'^'_'`'a'b'c'd'e'f'g'h'i'j'      ",
"    k'l'm'n'o'p'q'r's't'u'v'w'x'y'y'z'{'|'}'~' (!(#(d%$(%(      ",
"    &(z%'((()(*(+(,(-(B$.(0(1(2(3(4(5(6(7(8(9(:(;(M'<(=(>(      ",
"      ?(@(A(B(C(D(E(F(G(V'?&H(I(^%_!J(K(L(M(N(O(P(Q(R(S(T(U(    ",
"        V(W(X(Y(Z([(](^(_(`(a(b(c(d(e(f(g(h(i(j(k(l(m(n(o(B$    ",
"          p(q(r(s(t(u(v(w(x(y(z({(|(}(~( )!)#)$)%)&)')          ",
"              ()))*)+),)-).)0)1)2)3)4)5)  B$6)7)                ",
"                  8)9):);)<)<)=)>)5)B$                          "};

