/* XPM */ 
static const char * stop_icon[] = {
"32 32 4 1",
" 	c None",
"!	c black",
"#	c #FF0000",
"$	c white",
"          !!!!!!!!!!!!          ",
"         !$$$$$$$$$$$$!         ",
"        !$############$!        ",
"       !$##############$!       ",
"      !$################$!      ",
"     !$##################$!     ",
"    !$####################$!    ",
"   !$######################$!   ",
"  !$########################$!  ",
" !$##########################$! ",
"!$###$$$##$$$$$$#$$$$##$$$$$##$!",
"!$##$$$$$#$$$$$$#$$$$##$$$$$$#$!",
"!$#$$###$$##$$##$$##$$#$$##$$#$!",
"!$#$$#######$$##$$##$$#$$##$$#$!",
"!$#$$$######$$##$$##$$#$$##$$#$!",
"!$##$$$$####$$##$$##$$#$$$$$$#$!",
"!$###$$$$###$$##$$##$$#$$$$$##$!",
"!$#####$$$##$$##$$##$$#$$#####$!",
"!$######$$##$$##$$##$$#$$#####$!",
"!$#$$###$$##$$##$$##$$#$$#####$!",
"!$##$$$$$###$$###$$$$##$$#####$!",
"!$###$$$####$$###$$$$##$$#####$!",
" !$##########################$! ",
"  !$########################$!  ",
"   !$######################$!   ",
"    !$####################$!    ",
"     !$##################$!     ",
"      !$################$!      ",
"       !$##############$!       ",
"        !$############$!        ",
"         !$$$$$$$$$$$$!         ",
"          !!!!!!!!!!!!          "};

